<svg xmlns="http://www.w3.org/2000/svg" viewBox="0 0 200 200" width="100%" height="100%">
  <defs>
    <!-- Silver Gradients -->
    <linearGradient id="silverTop" x1="0%" y1="0%" x2="100%" y2="100%">
      <stop offset="0%" stop-color="#ffffff"/>
      <stop offset="100%" stop-color="#c4c9d0"/>
    </linearGradient>
    <linearGradient id="silverLeft" x1="0%" y1="0%" x2="100%" y2="100%">
      <stop offset="0%" stop-color="#9ca3af"/>
      <stop offset="100%" stop-color="#4b5563"/>
    </linearGradient>
    
    <!-- Blue Gradients (Metachasm Accent) -->
    <linearGradient id="blueRight" x1="0%" y1="0%" x2="100%" y2="100%">
      <stop offset="0%" stop-color="#3b82f6"/>
      <stop offset="100%" stop-color="#1d4ed8"/>
    </linearGradient>
    <linearGradient id="blueDark" x1="0%" y1="0%" x2="0%" y2="100%">
      <stop offset="0%" stop-color="#1e3a8a"/>
      <stop offset="100%" stop-color="#0f172a"/>
    </linearGradient>
  </defs>

  <g transform="translate(100, 100)">
    <!-- Back inner faces (The Chasm) -->
    <polygon points="0,10 40,-13 0,-36 -40,-13" fill="url(#blueDark)"/>
    <polygon points="0,10 40,-13 40,33 0,56" fill="url(#blueDark)"/>
    <polygon points="0,10 -40,-13 -40,33 0,56" fill="url(#blueDark)"/>

    <!-- Left Arm -->
    <polygon points="-75,-33 -35,-56 0,-36 -40,-13" fill="url(#silverTop)"/>
    <polygon points="-75,-33 -40,-13 -40,33 -75,10" fill="url(#silverLeft)"/>
    
    <!-- Right Arm -->
    <polygon points="75,-33 35,-56 0,-36 40,-13" fill="url(#silverTop)"/>
    <polygon points="75,-33 40,-13 40,33 75,10" fill="url(#blueRight)"/>

    <!-- Bottom Bridge -->
    <polygon points="-40,33 0,10 40,33 0,56" fill="url(#silverTop)"/>
    <polygon points="-40,33 0,56 0,102 -40,79" fill="url(#silverLeft)"/>
    <polygon points="40,33 0,56 0,102 40,79" fill="url(#blueRight)"/>
    
    <!-- Floating Top Crystal -->
    <polygon points="0,-90 20,-78 0,-66 -20,-78" fill="url(#silverTop)"/>
    <polygon points="-20,-78 0,-66 0,-43 -20,-55" fill="url(#silverLeft)"/>
    <polygon points="20,-78 0,-66 0,-43 20,-55" fill="url(#blueRight)"/>
  </g>
</svg>
